<?xml version="1.0" encoding="UTF-8" standalone="no"?>
<svg width="837px" height="64px" viewBox="0 0 837 64" version="1.1" xmlns="http://www.w3.org/2000/svg" xmlns:xlink="http://www.w3.org/1999/xlink" xmlns:sketch="http://www.bohemiancoding.com/sketch/ns">
    <!-- Generator: Sketch 3.3 (11970) - http://www.bohemiancoding.com/sketch -->
    <title>Imported Layers</title>
    <desc>Created with Sketch.</desc>
    <defs></defs>
    <g id="Page-1" stroke="none" stroke-width="1" fill="none" fill-rule="evenodd" sketch:type="MSPage">
        <g id="Imported-Layers" sketch:type="MSLayerGroup" fill="#1A171B">
            <path d="M112.241,0.841 L112.241,62.493 L153.711,62.493 L153.711,55.767 L119.526,55.767 L119.526,35.03 L148.107,35.03 L148.107,28.304 L119.526,28.304 L119.526,7.563 L153.711,7.563 L153.711,0.841 L112.241,0.841" id="Fill-1" sketch:type="MSShapeGroup"></path>
            <path d="M2.015,0.841 L0.332,7.563 L20.53,7.563 L5.959,62.493 L13.727,62.493 L28.301,7.563 L49.027,7.563 L50.704,0.841 L2.015,0.841" id="Fill-2" sketch:type="MSShapeGroup"></path>
            <path d="M97.669,0.841 L97.669,28.304 L62.231,28.304 L62.231,0.841 L54.383,0.841 L54.383,62.493 L62.231,62.493 L62.231,35.03 L97.669,35.03 L97.669,62.493 L105.514,62.493 L105.514,0.841 L97.669,0.841" id="Fill-3" sketch:type="MSShapeGroup"></path>
            <path d="M332.272,0.841 L332.272,62.493 L373.748,62.493 L373.748,55.764 L339.559,55.764 L339.559,35.026 L368.14,35.026 L368.14,28.304 L339.559,28.304 L339.559,7.567 L373.748,7.567 L373.748,0.841 L332.272,0.841" id="Fill-4" sketch:type="MSShapeGroup"></path>
            <path d="M490.842,0.739 L490.842,62.595 L532.313,62.595 L532.313,55.868 L498.129,55.868 L498.129,35.131 L526.71,35.131 L526.71,28.407 L498.129,28.407 L498.129,7.47 L532.313,7.47 L532.313,0.739 L490.842,0.739" id="Fill-5" sketch:type="MSShapeGroup"></path>
            <path d="M279.129,0.743 L277.25,8.163 L297.812,8.163 L283.238,62.591 L290.879,62.591 L305.448,8.163 L326.023,8.163 L327.904,0.743 L279.129,0.743" id="Fill-6" sketch:type="MSShapeGroup"></path>
            <path d="M264.501,0.743 L236.675,49.015 L236.675,0.743 L228.429,0.743 L228.429,62.591 L235.563,62.591 L264.718,13.892 L264.718,62.591 L272.963,62.591 L272.963,0.743 L264.501,0.743" id="Fill-7" sketch:type="MSShapeGroup"></path>
            <path d="M220.098,0.743 L206.105,0.743 L204.305,8.163 L209.374,8.163 L196.523,56.825 L191.426,56.825 L189.669,62.591 L207.263,62.591 L209.02,56.825 L203.977,56.825 L216.832,8.163 L221.911,8.163 L223.706,0.743 L220.098,0.743" id="Fill-8" sketch:type="MSShapeGroup"></path>
            <path d="M425.736,20.661 C424.663,24.868 421.56,29.144 416.891,31.384 L410.123,32.524 L408.872,28.062 L400.826,28.062 L402.43,32.187 L394.968,32.187 L401.565,8.27 L417.92,8.27 C425.634,8.27 427.288,15.035 425.736,20.661 M420.504,0.847 L395.815,0.847 L379.353,62.698 L386.901,62.698 L393.177,39.61 L404.34,39.61 L411.094,62.698 L419.153,62.698 L412.356,38.548 C423.993,37.354 430.915,28.786 433.349,19.571 C436.031,9.727 433.406,0.847 420.504,0.847" id="Fill-9" sketch:type="MSShapeGroup"></path>
            <path d="M539.688,0.743 L537.812,8.163 L558.371,8.163 L543.797,62.591 L551.436,62.591 L566.007,8.163 L586.579,8.163 L588.463,0.743 L539.688,0.743" id="Fill-10" sketch:type="MSShapeGroup"></path>
            <path d="M476.172,0.743 L447.8,49.015 L447.8,0.743 L440.376,0.743 L440.376,62.591 L447.235,62.591 L476.664,13.892 L476.664,62.591 L484.088,62.591 L484.088,0.743 L476.172,0.743" id="Fill-11" sketch:type="MSShapeGroup"></path>
            <path d="M631.119,7.222 C638.342,7.222 643.786,12.577 644.49,17.523 L652.376,17.523 C651.716,7.628 643.075,0.491 631.119,0.491 C619.177,0.491 611.445,6.575 610.372,16.2 C609.31,24.731 614.398,31.291 626.915,34.556 L634.79,36.776 C643.315,39.214 644.009,43.352 644.009,46.248 C644.009,51.843 638.229,56.409 632.237,56.409 C625.5,56.409 620.503,52.985 619.96,46.388 L611.5,46.388 C612.621,56.286 621.029,63.126 632.237,63.126 C642.522,63.126 651.853,56.348 651.853,46.272 C651.853,40.827 650,33.044 636.971,29.954 C634.906,29.466 630.716,28.803 628.658,28.286 C622.729,26.813 616.859,23.382 617.666,16.645 C618.288,11.48 623.367,7.222 631.119,7.222" id="Fill-12" sketch:type="MSShapeGroup"></path>
            <path d="M685.506,10.074 L699.417,48.574 L670.959,48.574 L685.506,10.074 L685.506,10.074 Z M680.646,0.743 L662.708,48.574 L657.243,48.574 L657.243,55.171 L660.172,55.171 L657.369,62.591 L665.128,62.591 L668.491,55.171 L701.912,55.171 L705.275,62.591 L713.014,62.591 L690.309,0.743 L680.646,0.743 L680.646,0.743 Z" id="Fill-13" sketch:type="MSShapeGroup"></path>
            <path d="M808.693,10.074 L823.243,48.574 L794.785,48.574 L808.693,10.074 L808.693,10.074 Z M804.239,0.743 L786.511,48.574 L778.475,48.574 L778.475,55.171 L783.964,55.171 L781.168,62.591 L788.927,62.591 L792.283,55.171 L825.715,55.171 L829.074,62.591 L836.799,62.591 L813.55,0.743 L804.239,0.743 L804.239,0.743 Z" id="Fill-14" sketch:type="MSShapeGroup"></path>
            <path d="M767.161,32.371 L743.01,32.371 L743.01,38.968 L762.267,38.968 C762.305,49.69 753.523,56.614 742.057,56.614 C729.133,56.614 721.319,45.048 721.319,31.81 C721.319,18.569 729.133,7.075 742.057,7.075 C748.075,7.075 753.257,9.181 757.235,12.82 L762.807,8.09 C757.44,3.154 750.335,0.286 742.057,0.286 C724.676,0.286 714.036,14.116 714.036,31.667 C714.036,49.222 724.573,63.051 741.957,63.051 C754.952,63.051 763.148,56.864 765.391,44.744 L765.422,62.059 L771.878,62.059 L771.878,37.085 L767.161,32.371" id="Fill-15" sketch:type="MSShapeGroup"></path>
        </g>
    </g>
</svg>